<mxfile host="app.diagrams.net" modified="2023-12-20T13:55:53.439Z" agent="Mozilla/5.0 (Windows NT 10.0; Win64; x64) AppleWebKit/537.36 (KHTML, like Gecko) Chrome/118.0.5993.771 YaBrowser/23.11.2.771 Yowser/2.5 Safari/537.36" etag="HeI0vFk7m2SKZKD-PeWh" version="22.1.11" type="device">
  <diagram name="Страница — 1" id="EbUjscPplXXTyz-1PeaS">
    <mxGraphModel dx="792" dy="452" grid="1" gridSize="10" guides="1" tooltips="1" connect="1" arrows="1" fold="1" page="1" pageScale="1" pageWidth="827" pageHeight="1169" math="0" shadow="0">
      <root>
        <mxCell id="0" />
        <mxCell id="1" parent="0" />
        <mxCell id="vbkzvFXK82xDXcMPcRn2-1" value="" style="rounded=0;whiteSpace=wrap;html=1;" vertex="1" parent="1">
          <mxGeometry x="354" y="80" width="236" height="100" as="geometry" />
        </mxCell>
        <mxCell id="vbkzvFXK82xDXcMPcRn2-2" value="назначения задачи" style="rounded=0;whiteSpace=wrap;html=1;" vertex="1" parent="1">
          <mxGeometry x="354" y="80" width="236" height="20" as="geometry" />
        </mxCell>
        <mxCell id="vbkzvFXK82xDXcMPcRn2-3" value="Трекер задач" style="rounded=0;whiteSpace=wrap;html=1;" vertex="1" parent="1">
          <mxGeometry x="354" y="150" width="90" height="30" as="geometry" />
        </mxCell>
        <mxCell id="vbkzvFXK82xDXcMPcRn2-4" value="определение содержания задачи, формирование списка исполнителей, определение сроков исполнения" style="rounded=0;whiteSpace=wrap;html=1;" vertex="1" parent="1">
          <mxGeometry x="354" y="270" width="236" height="100" as="geometry" />
        </mxCell>
        <mxCell id="vbkzvFXK82xDXcMPcRn2-5" value="формирователь задачи" style="rounded=0;whiteSpace=wrap;html=1;" vertex="1" parent="1">
          <mxGeometry x="354" y="270" width="236" height="20" as="geometry" />
        </mxCell>
        <mxCell id="vbkzvFXK82xDXcMPcRn2-6" value="Руководство" style="rounded=0;whiteSpace=wrap;html=1;" vertex="1" parent="1">
          <mxGeometry x="354" y="350" width="90" height="20" as="geometry" />
        </mxCell>
        <mxCell id="vbkzvFXK82xDXcMPcRn2-10" value="" style="shape=waypoint;sketch=0;fillStyle=solid;size=6;pointerEvents=1;points=[];fillColor=none;resizable=0;rotatable=0;perimeter=centerPerimeter;snapToPoint=1;" vertex="1" parent="1">
          <mxGeometry x="470" y="260" width="20" height="20" as="geometry" />
        </mxCell>
        <mxCell id="vbkzvFXK82xDXcMPcRn2-11" value="" style="line;strokeWidth=2;direction=south;html=1;" vertex="1" parent="1">
          <mxGeometry x="475" y="180" width="10" height="90" as="geometry" />
        </mxCell>
      </root>
    </mxGraphModel>
  </diagram>
</mxfile>
